<?xml version="1.0" standalone="no"?>
<!DOCTYPE svg PUBLIC "-//W3C//DTD SVG 20010904//EN"
 "http://www.w3.org/TR/2001/REC-SVG-20010904/DTD/svg10.dtd">
<svg version="1.0" xmlns="http://www.w3.org/2000/svg"
 width="820.000000pt" height="596.000000pt" viewBox="0 0 820.000000 596.000000"
 preserveAspectRatio="xMidYMid meet">

<g transform="translate(0.000000,596.000000) scale(0.100000,-0.100000)"
fill="#000000" stroke="none">
<path d="M5075 5484 c-352 -35 -1101 -109 -1665 -164 -564 -55 -1037 -103
-1053 -106 l-27 -6 0 -228 0 -229 33 -6 c17 -3 86 -14 153 -24 67 -10 138 -28
160 -39 141 -73 189 -259 95 -366 -51 -58 -121 -67 -311 -37 -63 10 -118 16
-122 14 -5 -2 -8 -63 -8 -134 0 -95 3 -131 13 -134 6 -3 74 -14 151 -25 158
-23 217 -48 268 -113 81 -102 75 -251 -11 -315 -58 -43 -102 -47 -253 -23 -76
11 -144 21 -153 21 -13 0 -15 -20 -15 -134 0 -74 4 -137 9 -140 5 -3 73 -15
152 -27 154 -22 198 -39 252 -93 133 -133 84 -350 -83 -372 -26 -3 -100 3
-177 15 -72 12 -136 21 -142 21 -17 0 -15 -270 2 -270 52 -1 320 -51 345 -64
158 -82 192 -303 60 -389 -52 -34 -111 -35 -283 -7 -66 11 -123 20 -127 20 -5
0 -8 -63 -8 -139 l0 -139 28 -6 c15 -3 79 -12 142 -21 156 -22 184 -32 240
-82 93 -84 118 -204 61 -294 -53 -84 -119 -96 -343 -61 -65 11 -120 17 -123
14 -3 -3 -5 -105 -5 -228 l0 -222 33 -6 c17 -3 822 -125 1787 -272 1360 -206
1771 -265 1826 -262 58 3 80 9 120 33 60 37 109 108 123 178 8 36 11 596 9
1887 l-3 1835 -23 57 c-40 98 -150 201 -244 229 -18 5 -814 129 -1768 274
-954 146 -1753 269 -1775 274 l-40 9 35 1 c19 1 811 -26 1760 -58 1704 -59
1778 -63 1863 -96 16 -7 17 3 17 122 0 156 -13 202 -77 273 -57 64 -112 96
-187 109 -33 6 -62 11 -65 10 -3 -1 -294 -30 -646 -65z m-1773 -1435 c82 -42
219 -189 703 -754 169 -198 315 -368 324 -378 16 -17 21 -14 101 54 47 39 89
74 93 79 5 4 -1 26 -13 49 -31 61 -37 131 -15 186 15 41 52 76 338 318 177
150 337 285 355 300 39 32 89 36 122 9 22 -18 22 -18 -263 -260 -157 -133
-287 -248 -290 -254 -14 -41 47 -84 80 -57 9 8 138 116 286 242 148 125 272
227 276 227 3 0 20 -18 38 -39 l32 -38 -272 -231 c-150 -126 -281 -239 -291
-251 -16 -17 -17 -25 -8 -46 14 -31 56 -43 80 -23 257 220 554 468 559 467 5
0 22 -17 40 -38 l32 -37 -263 -222 c-322 -273 -323 -274 -308 -307 16 -34 57
-43 85 -18 96 87 548 463 556 463 13 0 25 -62 17 -88 -7 -20 -678 -595 -730
-624 -61 -35 -161 -16 -221 42 l-30 29 -93 -80 -93 -80 62 -72 c34 -40 276
-319 538 -620 262 -302 482 -562 489 -578 18 -42 6 -73 -41 -112 -52 -43 -81
-52 -115 -38 -17 7 -247 266 -567 636 -297 343 -543 624 -548 624 -4 1 -242
-198 -529 -441 -287 -244 -533 -451 -547 -460 -37 -25 -75 -22 -112 9 -54 46
-89 102 -89 143 0 38 4 41 545 499 300 254 545 465 545 470 0 17 -57 59 -90
66 -101 21 -234 129 -438 358 -258 289 -421 538 -476 726 -23 80 -21 108 13
142 36 35 75 38 133 8z"/>
<path d="M2017 4670 c-64 -51 -49 -162 28 -210 36 -22 561 -106 601 -96 14 4
37 19 50 33 47 51 22 163 -46 198 -26 13 -524 95 -581 95 -14 0 -38 -9 -52
-20z"/>
<path d="M2016 3939 c-67 -53 -44 -168 44 -214 43 -22 562 -98 592 -86 91 34
89 179 -3 226 -30 16 -509 95 -575 95 -17 0 -43 -9 -58 -21z"/>
<path d="M2016 3209 c-54 -43 -50 -136 10 -189 19 -16 44 -32 57 -35 71 -16
488 -75 532 -75 47 0 56 4 79 31 46 55 27 151 -38 194 -25 16 -501 95 -575 95
-24 0 -48 -8 -65 -21z"/>
<path d="M2017 2490 c-69 -55 -46 -169 45 -216 34 -18 552 -96 584 -88 13 3
35 20 49 36 29 34 33 93 10 138 -30 59 -54 66 -336 110 -145 22 -278 40 -295
40 -17 0 -43 -9 -57 -20z"/>
<path d="M2018 1771 c-32 -26 -50 -80 -38 -120 27 -95 45 -103 369 -152 150
-22 284 -38 298 -34 94 23 98 172 5 227 -18 11 -117 31 -263 53 -331 51 -338
52 -371 26z"/>
</g>
</svg>
